<?xml version="1.0" encoding="utf-8" standalone="no"?>
<!DOCTYPE svg PUBLIC "-//W3C//DTD SVG 1.1//EN"
  "http://www.w3.org/Graphics/SVG/1.1/DTD/svg11.dtd">
<svg xmlns:xlink="http://www.w3.org/1999/xlink" width="656.1pt" height="302.688pt" viewBox="0 0 656.1 302.688" xmlns="http://www.w3.org/2000/svg" version="1.1">
 <metadata>
  <rdf:RDF xmlns:dc="http://purl.org/dc/elements/1.1/" xmlns:cc="http://creativecommons.org/ns#" xmlns:rdf="http://www.w3.org/1999/02/22-rdf-syntax-ns#">
   <cc:Work>
    <dc:type rdf:resource="http://purl.org/dc/dcmitype/StillImage"/>
    <dc:date>2026-08-03</dc:date>
    <dc:format>image/svg+xml</dc:format>
    <dc:creator>
     <cc:Agent>
      <dc:title>Matplotlib run_phase6_figures</dc:title>
     </cc:Agent>
    </dc:creator>
   </cc:Work>
  </rdf:RDF>
 </metadata>
 <defs>
  <style type="text/css">*{stroke-linejoin: round; stroke-linecap: butt}</style>
 </defs>
 <g id="figure_1">
  <g id="patch_1">
   <path d="M 0 302.688 
L 656.1 302.688 
L 656.1 0 
L 0 0 
z
" style="fill: #ffffff"/>
  </g>
  <g id="axes_1">
   <g id="patch_2">
    <path d="M 32.868 128.28096 
L 109.872 128.28096 
Q 122.706 128.28096 122.706 122.5152 
L 122.706 82.15488 
Q 122.706 76.38912 109.872 76.38912 
L 32.868 76.38912 
Q 20.034 76.38912 20.034 82.15488 
L 20.034 122.5152 
Q 20.034 128.28096 32.868 128.28096 
z
" clip-path="url(#p9dea763306)" style="fill: #4c78a8; fill-opacity: 0.1; stroke: #4c78a8; stroke-width: 1.3; stroke-linejoin: miter"/>
   </g>
   <g id="patch_3">
    <path d="M 167.625 128.28096 
L 283.131 128.28096 
Q 295.965 128.28096 295.965 122.5152 
L 295.965 82.15488 
Q 295.965 76.38912 283.131 76.38912 
L 167.625 76.38912 
Q 154.791 76.38912 154.791 82.15488 
L 154.791 122.5152 
Q 154.791 128.28096 167.625 128.28096 
z
" clip-path="url(#p9dea763306)" style="fill: #4c78a8; fill-opacity: 0.1; stroke: #4c78a8; stroke-width: 1.3; stroke-linejoin: miter"/>
   </g>
   <g id="patch_4">
    <path d="M 340.884 128.28096 
L 443.556 128.28096 
Q 456.39 128.28096 456.39 122.5152 
L 456.39 82.15488 
Q 456.39 76.38912 443.556 76.38912 
L 340.884 76.38912 
Q 328.05 76.38912 328.05 82.15488 
L 328.05 122.5152 
Q 328.05 128.28096 340.884 128.28096 
z
" clip-path="url(#p9dea763306)" style="fill: #4c78a8; fill-opacity: 0.1; stroke: #4c78a8; stroke-width: 1.3; stroke-linejoin: miter"/>
   </g>
   <g id="patch_5">
    <path d="M 507.726 128.28096 
L 610.398 128.28096 
Q 623.232 128.28096 623.232 122.5152 
L 623.232 82.15488 
Q 623.232 76.38912 610.398 76.38912 
L 507.726 76.38912 
Q 494.892 76.38912 494.892 82.15488 
L 494.892 122.5152 
Q 494.892 128.28096 507.726 128.28096 
z
" clip-path="url(#p9dea763306)" style="fill: #4c78a8; fill-opacity: 0.1; stroke: #4c78a8; stroke-width: 1.3; stroke-linejoin: miter"/>
   </g>
   <g id="patch_6">
    <path d="M 148.374 237.8304 
L 263.88 237.8304 
Q 276.714 237.8304 276.714 232.06464 
L 276.714 191.70432 
Q 276.714 185.93856 263.88 185.93856 
L 148.374 185.93856 
Q 135.54 185.93856 135.54 191.70432 
L 135.54 232.06464 
Q 135.54 237.8304 148.374 237.8304 
z
" clip-path="url(#p9dea763306)" style="fill: #e45756; fill-opacity: 0.1; stroke: #e45756; stroke-width: 1.3; stroke-linejoin: miter"/>
   </g>
   <g id="patch_7">
    <path d="M 308.799 237.8304 
L 417.888 237.8304 
Q 430.722 237.8304 430.722 232.06464 
L 430.722 191.70432 
Q 430.722 185.93856 417.888 185.93856 
L 308.799 185.93856 
Q 295.965 185.93856 295.965 191.70432 
L 295.965 232.06464 
Q 295.965 237.8304 308.799 237.8304 
z
" clip-path="url(#p9dea763306)" style="fill: #f2cf5b; fill-opacity: 0.1; stroke: #f2cf5b; stroke-width: 1.3; stroke-linejoin: miter"/>
   </g>
   <g id="patch_8">
    <path d="M 456.39 243.59616 
L 610.398 243.59616 
Q 623.232 243.59616 623.232 237.8304 
L 623.232 185.93856 
Q 623.232 180.1728 610.398 180.1728 
L 456.39 180.1728 
Q 443.556 180.1728 443.556 185.93856 
L 443.556 237.8304 
Q 443.556 243.59616 456.39 243.59616 
z
" clip-path="url(#p9dea763306)" style="fill: #54a24b; fill-opacity: 0.1; stroke: #54a24b; stroke-width: 1.3; stroke-linejoin: miter"/>
   </g>
   <g id="text_1">
    <!-- Input -->
    <g transform="translate(59.717813 99.779462) scale(0.09 -0.09)">
     <defs>
      <path id="DejaVuSans-49" d="M 628 4666 
L 1259 4666 
L 1259 0 
L 628 0 
L 628 4666 
z
" transform="scale(0.015625)"/>
      <path id="DejaVuSans-6e" d="M 3513 2113 
L 3513 0 
L 2938 0 
L 2938 2094 
Q 2938 2591 2744 2837 
Q 2550 3084 2163 3084 
Q 1697 3084 1428 2787 
Q 1159 2491 1159 1978 
L 1159 0 
L 581 0 
L 581 3500 
L 1159 3500 
L 1159 2956 
Q 1366 3272 1645 3428 
Q 1925 3584 2291 3584 
Q 2894 3584 3203 3211 
Q 3513 2838 3513 2113 
z
" transform="scale(0.015625)"/>
      <path id="DejaVuSans-70" d="M 1159 525 
L 1159 -1331 
L 581 -1331 
L 581 3500 
L 1159 3500 
L 1159 2969 
Q 1341 3281 1617 3432 
Q 1894 3584 2278 3584 
Q 2916 3584 3314 3078 
Q 3713 2572 3713 1747 
Q 3713 922 3314 415 
Q 2916 -91 2278 -91 
Q 1894 -91 1617 61 
Q 1341 213 1159 525 
z
M 3116 1747 
Q 3116 2381 2855 2742 
Q 2594 3103 2138 3103 
Q 1681 3103 1420 2742 
Q 1159 2381 1159 1747 
Q 1159 1113 1420 752 
Q 1681 391 2138 391 
Q 2594 391 2855 752 
Q 3116 1113 3116 1747 
z
" transform="scale(0.015625)"/>
      <path id="DejaVuSans-75" d="M 544 1381 
L 544 3500 
L 1119 3500 
L 1119 1403 
Q 1119 906 1312 657 
Q 1506 409 1894 409 
Q 2359 409 2629 706 
Q 2900 1003 2900 1516 
L 2900 3500 
L 3475 3500 
L 3475 0 
L 2900 0 
L 2900 538 
Q 2691 219 2414 64 
Q 2138 -91 1772 -91 
Q 1169 -91 856 284 
Q 544 659 544 1381 
z
M 1991 3584 
L 1991 3584 
z
" transform="scale(0.015625)"/>
      <path id="DejaVuSans-74" d="M 1172 4494 
L 1172 3500 
L 2356 3500 
L 2356 3053 
L 1172 3053 
L 1172 1153 
Q 1172 725 1289 603 
Q 1406 481 1766 481 
L 2356 481 
L 2356 0 
L 1766 0 
Q 1100 0 847 248 
Q 594 497 594 1153 
L 594 3053 
L 172 3053 
L 172 3500 
L 594 3500 
L 594 4494 
L 1172 4494 
z
" transform="scale(0.015625)"/>
     </defs>
     <use xlink:href="#DejaVuSans-49"/>
     <use xlink:href="#DejaVuSans-6e" transform="translate(29.492188 0)"/>
     <use xlink:href="#DejaVuSans-70" transform="translate(92.871094 0)"/>
     <use xlink:href="#DejaVuSans-75" transform="translate(156.347656 0)"/>
     <use xlink:href="#DejaVuSans-74" transform="translate(219.726562 0)"/>
    </g>
    <!-- x[n] -->
    <g transform="translate(62.343281 109.857493) scale(0.09 -0.09)">
     <defs>
      <path id="DejaVuSans-78" d="M 3513 3500 
L 2247 1797 
L 3578 0 
L 2900 0 
L 1881 1375 
L 863 0 
L 184 0 
L 1544 1831 
L 300 3500 
L 978 3500 
L 1906 2253 
L 2834 3500 
L 3513 3500 
z
" transform="scale(0.015625)"/>
      <path id="DejaVuSans-5b" d="M 550 4863 
L 1875 4863 
L 1875 4416 
L 1125 4416 
L 1125 -397 
L 1875 -397 
L 1875 -844 
L 550 -844 
L 550 4863 
z
" transform="scale(0.015625)"/>
      <path id="DejaVuSans-5d" d="M 1947 4863 
L 1947 -844 
L 622 -844 
L 622 -397 
L 1369 -397 
L 1369 4416 
L 622 4416 
L 622 4863 
L 1947 4863 
z
" transform="scale(0.015625)"/>
     </defs>
     <use xlink:href="#DejaVuSans-78"/>
     <use xlink:href="#DejaVuSans-5b" transform="translate(59.179688 0)"/>
     <use xlink:href="#DejaVuSans-6e" transform="translate(98.193359 0)"/>
     <use xlink:href="#DejaVuSans-5d" transform="translate(161.572266 0)"/>
    </g>
   </g>
   <g id="text_2">
    <!-- Adaptive -->
    <g transform="translate(205.460578 99.779462) scale(0.09 -0.09)">
     <defs>
      <path id="DejaVuSans-41" d="M 2188 4044 
L 1331 1722 
L 3047 1722 
L 2188 4044 
z
M 1831 4666 
L 2547 4666 
L 4325 0 
L 3669 0 
L 3244 1197 
L 1141 1197 
L 716 0 
L 50 0 
L 1831 4666 
z
" transform="scale(0.015625)"/>
      <path id="DejaVuSans-64" d="M 2906 2969 
L 2906 4863 
L 3481 4863 
L 3481 0 
L 2906 0 
L 2906 525 
Q 2725 213 2448 61 
Q 2172 -91 1784 -91 
Q 1150 -91 751 415 
Q 353 922 353 1747 
Q 353 2572 751 3078 
Q 1150 3584 1784 3584 
Q 2172 3584 2448 3432 
Q 2725 3281 2906 2969 
z
M 947 1747 
Q 947 1113 1208 752 
Q 1469 391 1925 391 
Q 2381 391 2643 752 
Q 2906 1113 2906 1747 
Q 2906 2381 2643 2742 
Q 2381 3103 1925 3103 
Q 1469 3103 1208 2742 
Q 947 2381 947 1747 
z
" transform="scale(0.015625)"/>
      <path id="DejaVuSans-61" d="M 2194 1759 
Q 1497 1759 1228 1600 
Q 959 1441 959 1056 
Q 959 750 1161 570 
Q 1363 391 1709 391 
Q 2188 391 2477 730 
Q 2766 1069 2766 1631 
L 2766 1759 
L 2194 1759 
z
M 3341 1997 
L 3341 0 
L 2766 0 
L 2766 531 
Q 2569 213 2275 61 
Q 1981 -91 1556 -91 
Q 1019 -91 701 211 
Q 384 513 384 1019 
Q 384 1609 779 1909 
Q 1175 2209 1959 2209 
L 2766 2209 
L 2766 2266 
Q 2766 2663 2505 2880 
Q 2244 3097 1772 3097 
Q 1472 3097 1187 3025 
Q 903 2953 641 2809 
L 641 3341 
Q 956 3463 1253 3523 
Q 1550 3584 1831 3584 
Q 2591 3584 2966 3190 
Q 3341 2797 3341 1997 
z
" transform="scale(0.015625)"/>
      <path id="DejaVuSans-69" d="M 603 3500 
L 1178 3500 
L 1178 0 
L 603 0 
L 603 3500 
z
M 603 4863 
L 1178 4863 
L 1178 4134 
L 603 4134 
L 603 4863 
z
" transform="scale(0.015625)"/>
      <path id="DejaVuSans-76" d="M 191 3500 
L 800 3500 
L 1894 563 
L 2988 3500 
L 3597 3500 
L 2284 0 
L 1503 0 
L 191 3500 
z
" transform="scale(0.015625)"/>
      <path id="DejaVuSans-65" d="M 3597 1894 
L 3597 1613 
L 953 1613 
Q 991 1019 1311 708 
Q 1631 397 2203 397 
Q 2534 397 2845 478 
Q 3156 559 3463 722 
L 3463 178 
Q 3153 47 2828 -22 
Q 2503 -91 2169 -91 
Q 1331 -91 842 396 
Q 353 884 353 1716 
Q 353 2575 817 3079 
Q 1281 3584 2069 3584 
Q 2775 3584 3186 3129 
Q 3597 2675 3597 1894 
z
M 3022 2063 
Q 3016 2534 2758 2815 
Q 2500 3097 2075 3097 
Q 1594 3097 1305 2825 
Q 1016 2553 972 2059 
L 3022 2063 
z
" transform="scale(0.015625)"/>
     </defs>
     <use xlink:href="#DejaVuSans-41"/>
     <use xlink:href="#DejaVuSans-64" transform="translate(66.658203 0)"/>
     <use xlink:href="#DejaVuSans-61" transform="translate(130.134766 0)"/>
     <use xlink:href="#DejaVuSans-70" transform="translate(191.414062 0)"/>
     <use xlink:href="#DejaVuSans-74" transform="translate(254.890625 0)"/>
     <use xlink:href="#DejaVuSans-69" transform="translate(294.099609 0)"/>
     <use xlink:href="#DejaVuSans-76" transform="translate(321.882812 0)"/>
     <use xlink:href="#DejaVuSans-65" transform="translate(381.0625 0)"/>
    </g>
    <!-- canceller -->
    <g transform="translate(204.931828 109.857493) scale(0.09 -0.09)">
     <defs>
      <path id="DejaVuSans-63" d="M 3122 3366 
L 3122 2828 
Q 2878 2963 2633 3030 
Q 2388 3097 2138 3097 
Q 1578 3097 1268 2742 
Q 959 2388 959 1747 
Q 959 1106 1268 751 
Q 1578 397 2138 397 
Q 2388 397 2633 464 
Q 2878 531 3122 666 
L 3122 134 
Q 2881 22 2623 -34 
Q 2366 -91 2075 -91 
Q 1284 -91 818 406 
Q 353 903 353 1747 
Q 353 2603 823 3093 
Q 1294 3584 2113 3584 
Q 2378 3584 2631 3529 
Q 2884 3475 3122 3366 
z
" transform="scale(0.015625)"/>
      <path id="DejaVuSans-6c" d="M 603 4863 
L 1178 4863 
L 1178 0 
L 603 0 
L 603 4863 
z
" transform="scale(0.015625)"/>
      <path id="DejaVuSans-72" d="M 2631 2963 
Q 2534 3019 2420 3045 
Q 2306 3072 2169 3072 
Q 1681 3072 1420 2755 
Q 1159 2438 1159 1844 
L 1159 0 
L 581 0 
L 581 3500 
L 1159 3500 
L 1159 2956 
Q 1341 3275 1631 3429 
Q 1922 3584 2338 3584 
Q 2397 3584 2469 3576 
Q 2541 3569 2628 3553 
L 2631 2963 
z
" transform="scale(0.015625)"/>
     </defs>
     <use xlink:href="#DejaVuSans-63"/>
     <use xlink:href="#DejaVuSans-61" transform="translate(54.980469 0)"/>
     <use xlink:href="#DejaVuSans-6e" transform="translate(116.259766 0)"/>
     <use xlink:href="#DejaVuSans-63" transform="translate(179.638672 0)"/>
     <use xlink:href="#DejaVuSans-65" transform="translate(234.619141 0)"/>
     <use xlink:href="#DejaVuSans-6c" transform="translate(296.142578 0)"/>
     <use xlink:href="#DejaVuSans-6c" transform="translate(323.925781 0)"/>
     <use xlink:href="#DejaVuSans-65" transform="translate(351.708984 0)"/>
     <use xlink:href="#DejaVuSans-72" transform="translate(413.232422 0)"/>
    </g>
   </g>
   <g id="text_3">
    <!-- Residual -->
    <g transform="translate(373.215938 99.779462) scale(0.09 -0.09)">
     <defs>
      <path id="DejaVuSans-52" d="M 2841 2188 
Q 3044 2119 3236 1894 
Q 3428 1669 3622 1275 
L 4263 0 
L 3584 0 
L 2988 1197 
Q 2756 1666 2539 1819 
Q 2322 1972 1947 1972 
L 1259 1972 
L 1259 0 
L 628 0 
L 628 4666 
L 2053 4666 
Q 2853 4666 3247 4331 
Q 3641 3997 3641 3322 
Q 3641 2881 3436 2590 
Q 3231 2300 2841 2188 
z
M 1259 4147 
L 1259 2491 
L 2053 2491 
Q 2509 2491 2742 2702 
Q 2975 2913 2975 3322 
Q 2975 3731 2742 3939 
Q 2509 4147 2053 4147 
L 1259 4147 
z
" transform="scale(0.015625)"/>
      <path id="DejaVuSans-73" d="M 2834 3397 
L 2834 2853 
Q 2591 2978 2328 3040 
Q 2066 3103 1784 3103 
Q 1356 3103 1142 2972 
Q 928 2841 928 2578 
Q 928 2378 1081 2264 
Q 1234 2150 1697 2047 
L 1894 2003 
Q 2506 1872 2764 1633 
Q 3022 1394 3022 966 
Q 3022 478 2636 193 
Q 2250 -91 1575 -91 
Q 1294 -91 989 -36 
Q 684 19 347 128 
L 347 722 
Q 666 556 975 473 
Q 1284 391 1588 391 
Q 1994 391 2212 530 
Q 2431 669 2431 922 
Q 2431 1156 2273 1281 
Q 2116 1406 1581 1522 
L 1381 1569 
Q 847 1681 609 1914 
Q 372 2147 372 2553 
Q 372 3047 722 3315 
Q 1072 3584 1716 3584 
Q 2034 3584 2315 3537 
Q 2597 3491 2834 3397 
z
" transform="scale(0.015625)"/>
     </defs>
     <use xlink:href="#DejaVuSans-52"/>
     <use xlink:href="#DejaVuSans-65" transform="translate(64.982422 0)"/>
     <use xlink:href="#DejaVuSans-73" transform="translate(126.505859 0)"/>
     <use xlink:href="#DejaVuSans-69" transform="translate(178.605469 0)"/>
     <use xlink:href="#DejaVuSans-64" transform="translate(206.388672 0)"/>
     <use xlink:href="#DejaVuSans-75" transform="translate(269.865234 0)"/>
     <use xlink:href="#DejaVuSans-61" transform="translate(333.244141 0)"/>
     <use xlink:href="#DejaVuSans-6c" transform="translate(394.523438 0)"/>
    </g>
    <!-- e[n] -->
    <g transform="translate(383.087813 109.857493) scale(0.09 -0.09)">
     <use xlink:href="#DejaVuSans-65"/>
     <use xlink:href="#DejaVuSans-5b" transform="translate(61.523438 0)"/>
     <use xlink:href="#DejaVuSans-6e" transform="translate(100.537109 0)"/>
     <use xlink:href="#DejaVuSans-5d" transform="translate(163.916016 0)"/>
    </g>
   </g>
   <g id="text_4">
    <!-- Filtered output -->
    <g transform="translate(526.119891 99.779462) scale(0.09 -0.09)">
     <defs>
      <path id="DejaVuSans-46" d="M 628 4666 
L 3309 4666 
L 3309 4134 
L 1259 4134 
L 1259 2759 
L 3109 2759 
L 3109 2228 
L 1259 2228 
L 1259 0 
L 628 0 
L 628 4666 
z
" transform="scale(0.015625)"/>
      <path id="DejaVuSans-20" transform="scale(0.015625)"/>
      <path id="DejaVuSans-6f" d="M 1959 3097 
Q 1497 3097 1228 2736 
Q 959 2375 959 1747 
Q 959 1119 1226 758 
Q 1494 397 1959 397 
Q 2419 397 2687 759 
Q 2956 1122 2956 1747 
Q 2956 2369 2687 2733 
Q 2419 3097 1959 3097 
z
M 1959 3584 
Q 2709 3584 3137 3096 
Q 3566 2609 3566 1747 
Q 3566 888 3137 398 
Q 2709 -91 1959 -91 
Q 1206 -91 779 398 
Q 353 888 353 1747 
Q 353 2609 779 3096 
Q 1206 3584 1959 3584 
z
" transform="scale(0.015625)"/>
     </defs>
     <use xlink:href="#DejaVuSans-46"/>
     <use xlink:href="#DejaVuSans-69" transform="translate(50.269531 0)"/>
     <use xlink:href="#DejaVuSans-6c" transform="translate(78.052734 0)"/>
     <use xlink:href="#DejaVuSans-74" transform="translate(105.835938 0)"/>
     <use xlink:href="#DejaVuSans-65" transform="translate(145.044922 0)"/>
     <use xlink:href="#DejaVuSans-72" transform="translate(206.568359 0)"/>
     <use xlink:href="#DejaVuSans-65" transform="translate(245.431641 0)"/>
     <use xlink:href="#DejaVuSans-64" transform="translate(306.955078 0)"/>
     <use xlink:href="#DejaVuSans-20" transform="translate(370.431641 0)"/>
     <use xlink:href="#DejaVuSans-6f" transform="translate(402.21875 0)"/>
     <use xlink:href="#DejaVuSans-75" transform="translate(463.400391 0)"/>
     <use xlink:href="#DejaVuSans-74" transform="translate(526.779297 0)"/>
     <use xlink:href="#DejaVuSans-70" transform="translate(565.988281 0)"/>
     <use xlink:href="#DejaVuSans-75" transform="translate(629.464844 0)"/>
     <use xlink:href="#DejaVuSans-74" transform="translate(692.84375 0)"/>
    </g>
    <!-- y[n] -->
    <g transform="translate(550.035281 109.857493) scale(0.09 -0.09)">
     <defs>
      <path id="DejaVuSans-79" d="M 2059 -325 
Q 1816 -950 1584 -1140 
Q 1353 -1331 966 -1331 
L 506 -1331 
L 506 -850 
L 844 -850 
Q 1081 -850 1212 -737 
Q 1344 -625 1503 -206 
L 1606 56 
L 191 3500 
L 800 3500 
L 1894 763 
L 2988 3500 
L 3597 3500 
L 2059 -325 
z
" transform="scale(0.015625)"/>
     </defs>
     <use xlink:href="#DejaVuSans-79"/>
     <use xlink:href="#DejaVuSans-5b" transform="translate(59.179688 0)"/>
     <use xlink:href="#DejaVuSans-6e" transform="translate(98.193359 0)"/>
     <use xlink:href="#DejaVuSans-5d" transform="translate(161.572266 0)"/>
    </g>
   </g>
   <g id="patch_9">
    <path d="M 111.870654 102.33504 
Q 138.749054 102.33504 164.285813 102.33504 
" style="fill: none; stroke: #333333; stroke-width: 1.2; stroke-linecap: round"/>
    <path d="M 160.285813 100.33504 
L 164.285813 102.33504 
L 160.285813 104.33504 
" style="fill: none; stroke: #333333; stroke-width: 1.2; stroke-linecap: round"/>
   </g>
   <g id="patch_10">
    <path d="M 285.129654 102.33504 
Q 312.008054 102.33504 337.544813 102.33504 
" style="fill: none; stroke: #333333; stroke-width: 1.2; stroke-linecap: round"/>
    <path d="M 333.544813 100.33504 
L 337.544813 102.33504 
L 333.544813 104.33504 
" style="fill: none; stroke: #333333; stroke-width: 1.2; stroke-linecap: round"/>
   </g>
   <g id="patch_11">
    <path d="M 445.557396 102.33504 
Q 475.641855 102.33504 504.384673 102.33504 
" style="fill: none; stroke: #333333; stroke-width: 1.2; stroke-linecap: round"/>
    <path d="M 500.384673 100.33504 
L 504.384673 102.33504 
L 500.384673 104.33504 
" style="fill: none; stroke: #333333; stroke-width: 1.2; stroke-linecap: round"/>
   </g>
   <g id="text_5">
    <!-- Frequency tracker -->
    <g transform="translate(165.542625 209.328902) scale(0.09 -0.09)">
     <defs>
      <path id="DejaVuSans-71" d="M 947 1747 
Q 947 1113 1208 752 
Q 1469 391 1925 391 
Q 2381 391 2643 752 
Q 2906 1113 2906 1747 
Q 2906 2381 2643 2742 
Q 2381 3103 1925 3103 
Q 1469 3103 1208 2742 
Q 947 2381 947 1747 
z
M 2906 525 
Q 2725 213 2448 61 
Q 2172 -91 1784 -91 
Q 1150 -91 751 415 
Q 353 922 353 1747 
Q 353 2572 751 3078 
Q 1150 3584 1784 3584 
Q 2172 3584 2448 3432 
Q 2725 3281 2906 2969 
L 2906 3500 
L 3481 3500 
L 3481 -1331 
L 2906 -1331 
L 2906 525 
z
" transform="scale(0.015625)"/>
      <path id="DejaVuSans-6b" d="M 581 4863 
L 1159 4863 
L 1159 1991 
L 2875 3500 
L 3609 3500 
L 1753 1863 
L 3688 0 
L 2938 0 
L 1159 1709 
L 1159 0 
L 581 0 
L 581 4863 
z
" transform="scale(0.015625)"/>
     </defs>
     <use xlink:href="#DejaVuSans-46"/>
     <use xlink:href="#DejaVuSans-72" transform="translate(50.269531 0)"/>
     <use xlink:href="#DejaVuSans-65" transform="translate(89.132812 0)"/>
     <use xlink:href="#DejaVuSans-71" transform="translate(150.65625 0)"/>
     <use xlink:href="#DejaVuSans-75" transform="translate(214.132812 0)"/>
     <use xlink:href="#DejaVuSans-65" transform="translate(277.511719 0)"/>
     <use xlink:href="#DejaVuSans-6e" transform="translate(339.035156 0)"/>
     <use xlink:href="#DejaVuSans-63" transform="translate(402.414062 0)"/>
     <use xlink:href="#DejaVuSans-79" transform="translate(457.394531 0)"/>
     <use xlink:href="#DejaVuSans-20" transform="translate(516.574219 0)"/>
     <use xlink:href="#DejaVuSans-74" transform="translate(548.361328 0)"/>
     <use xlink:href="#DejaVuSans-72" transform="translate(587.570312 0)"/>
     <use xlink:href="#DejaVuSans-61" transform="translate(628.683594 0)"/>
     <use xlink:href="#DejaVuSans-63" transform="translate(689.962891 0)"/>
     <use xlink:href="#DejaVuSans-6b" transform="translate(744.943359 0)"/>
     <use xlink:href="#DejaVuSans-65" transform="translate(799.228516 0)"/>
     <use xlink:href="#DejaVuSans-72" transform="translate(860.751953 0)"/>
    </g>
    <!-- PLL-like update -->
    <g transform="translate(171.855984 219.406933) scale(0.09 -0.09)">
     <defs>
      <path id="DejaVuSans-50" d="M 1259 4147 
L 1259 2394 
L 2053 2394 
Q 2494 2394 2734 2622 
Q 2975 2850 2975 3272 
Q 2975 3691 2734 3919 
Q 2494 4147 2053 4147 
L 1259 4147 
z
M 628 4666 
L 2053 4666 
Q 2838 4666 3239 4311 
Q 3641 3956 3641 3272 
Q 3641 2581 3239 2228 
Q 2838 1875 2053 1875 
L 1259 1875 
L 1259 0 
L 628 0 
L 628 4666 
z
" transform="scale(0.015625)"/>
      <path id="DejaVuSans-4c" d="M 628 4666 
L 1259 4666 
L 1259 531 
L 3531 531 
L 3531 0 
L 628 0 
L 628 4666 
z
" transform="scale(0.015625)"/>
      <path id="DejaVuSans-2d" d="M 313 2009 
L 1997 2009 
L 1997 1497 
L 313 1497 
L 313 2009 
z
" transform="scale(0.015625)"/>
     </defs>
     <use xlink:href="#DejaVuSans-50"/>
     <use xlink:href="#DejaVuSans-4c" transform="translate(60.302734 0)"/>
     <use xlink:href="#DejaVuSans-4c" transform="translate(116.015625 0)"/>
     <use xlink:href="#DejaVuSans-2d" transform="translate(169.978516 0)"/>
     <use xlink:href="#DejaVuSans-6c" transform="translate(206.0625 0)"/>
     <use xlink:href="#DejaVuSans-69" transform="translate(233.845703 0)"/>
     <use xlink:href="#DejaVuSans-6b" transform="translate(261.628906 0)"/>
     <use xlink:href="#DejaVuSans-65" transform="translate(315.914062 0)"/>
     <use xlink:href="#DejaVuSans-20" transform="translate(377.4375 0)"/>
     <use xlink:href="#DejaVuSans-75" transform="translate(409.224609 0)"/>
     <use xlink:href="#DejaVuSans-70" transform="translate(472.603516 0)"/>
     <use xlink:href="#DejaVuSans-64" transform="translate(536.080078 0)"/>
     <use xlink:href="#DejaVuSans-61" transform="translate(599.556641 0)"/>
     <use xlink:href="#DejaVuSans-74" transform="translate(660.835938 0)"/>
     <use xlink:href="#DejaVuSans-65" transform="translate(700.044922 0)"/>
    </g>
   </g>
   <g id="text_6">
    <!-- Quadrature -->
    <g transform="translate(337.593656 209.328902) scale(0.09 -0.09)">
     <defs>
      <path id="DejaVuSans-51" d="M 2522 4238 
Q 1834 4238 1429 3725 
Q 1025 3213 1025 2328 
Q 1025 1447 1429 934 
Q 1834 422 2522 422 
Q 3209 422 3611 934 
Q 4013 1447 4013 2328 
Q 4013 3213 3611 3725 
Q 3209 4238 2522 4238 
z
M 3406 84 
L 4238 -825 
L 3475 -825 
L 2784 -78 
Q 2681 -84 2626 -87 
Q 2572 -91 2522 -91 
Q 1538 -91 948 567 
Q 359 1225 359 2328 
Q 359 3434 948 4092 
Q 1538 4750 2522 4750 
Q 3503 4750 4090 4092 
Q 4678 3434 4678 2328 
Q 4678 1516 4351 937 
Q 4025 359 3406 84 
z
" transform="scale(0.015625)"/>
     </defs>
     <use xlink:href="#DejaVuSans-51"/>
     <use xlink:href="#DejaVuSans-75" transform="translate(78.710938 0)"/>
     <use xlink:href="#DejaVuSans-61" transform="translate(142.089844 0)"/>
     <use xlink:href="#DejaVuSans-64" transform="translate(203.369141 0)"/>
     <use xlink:href="#DejaVuSans-72" transform="translate(266.845703 0)"/>
     <use xlink:href="#DejaVuSans-61" transform="translate(307.958984 0)"/>
     <use xlink:href="#DejaVuSans-74" transform="translate(369.238281 0)"/>
     <use xlink:href="#DejaVuSans-75" transform="translate(408.447266 0)"/>
     <use xlink:href="#DejaVuSans-72" transform="translate(471.826172 0)"/>
     <use xlink:href="#DejaVuSans-65" transform="translate(510.689453 0)"/>
    </g>
    <!-- reference -->
    <g transform="translate(341.860219 219.406933) scale(0.09 -0.09)">
     <defs>
      <path id="DejaVuSans-66" d="M 2375 4863 
L 2375 4384 
L 1825 4384 
Q 1516 4384 1395 4259 
Q 1275 4134 1275 3809 
L 1275 3500 
L 2222 3500 
L 2222 3053 
L 1275 3053 
L 1275 0 
L 697 0 
L 697 3053 
L 147 3053 
L 147 3500 
L 697 3500 
L 697 3744 
Q 697 4328 969 4595 
Q 1241 4863 1831 4863 
L 2375 4863 
z
" transform="scale(0.015625)"/>
     </defs>
     <use xlink:href="#DejaVuSans-72"/>
     <use xlink:href="#DejaVuSans-65" transform="translate(38.863281 0)"/>
     <use xlink:href="#DejaVuSans-66" transform="translate(100.386719 0)"/>
     <use xlink:href="#DejaVuSans-65" transform="translate(135.591797 0)"/>
     <use xlink:href="#DejaVuSans-72" transform="translate(197.115234 0)"/>
     <use xlink:href="#DejaVuSans-65" transform="translate(235.978516 0)"/>
     <use xlink:href="#DejaVuSans-6e" transform="translate(297.501953 0)"/>
     <use xlink:href="#DejaVuSans-63" transform="translate(360.880859 0)"/>
     <use xlink:href="#DejaVuSans-65" transform="translate(415.861328 0)"/>
    </g>
   </g>
   <g id="patch_12">
    <path d="M 265.878654 211.88448 
Q 286.339431 211.88448 305.458566 211.88448 
" style="fill: none; stroke: #333333; stroke-width: 1.2; stroke-linecap: round"/>
    <path d="M 301.458566 209.88448 
L 305.458566 211.88448 
L 301.458566 213.88448 
" style="fill: none; stroke: #333333; stroke-width: 1.2; stroke-linecap: round"/>
   </g>
   <g id="patch_13">
    <path d="M 361.554092 190.806939 
Q 294.361613 157.110193 228.368416 124.014881 
" style="fill: none; stroke: #7a7a7a; stroke-width: 1.2; stroke-linecap: round"/>
    <path d="M 231.047417 127.595796 
L 228.368416 124.014881 
L 232.840549 124.020229 
" style="fill: none; stroke: #7a7a7a; stroke-width: 1.2; stroke-linecap: round"/>
   </g>
   <g id="text_7">
    <!-- Residual-driven scheduler -->
    <g transform="translate(475.078219 204.289886) scale(0.09 -0.09)">
     <defs>
      <path id="DejaVuSans-68" d="M 3513 2113 
L 3513 0 
L 2938 0 
L 2938 2094 
Q 2938 2591 2744 2837 
Q 2550 3084 2163 3084 
Q 1697 3084 1428 2787 
Q 1159 2491 1159 1978 
L 1159 0 
L 581 0 
L 581 4863 
L 1159 4863 
L 1159 2956 
Q 1366 3272 1645 3428 
Q 1925 3584 2291 3584 
Q 2894 3584 3203 3211 
Q 3513 2838 3513 2113 
z
" transform="scale(0.015625)"/>
     </defs>
     <use xlink:href="#DejaVuSans-52"/>
     <use xlink:href="#DejaVuSans-65" transform="translate(64.982422 0)"/>
     <use xlink:href="#DejaVuSans-73" transform="translate(126.505859 0)"/>
     <use xlink:href="#DejaVuSans-69" transform="translate(178.605469 0)"/>
     <use xlink:href="#DejaVuSans-64" transform="translate(206.388672 0)"/>
     <use xlink:href="#DejaVuSans-75" transform="translate(269.865234 0)"/>
     <use xlink:href="#DejaVuSans-61" transform="translate(333.244141 0)"/>
     <use xlink:href="#DejaVuSans-6c" transform="translate(394.523438 0)"/>
     <use xlink:href="#DejaVuSans-2d" transform="translate(422.306641 0)"/>
     <use xlink:href="#DejaVuSans-64" transform="translate(458.390625 0)"/>
     <use xlink:href="#DejaVuSans-72" transform="translate(521.867188 0)"/>
     <use xlink:href="#DejaVuSans-69" transform="translate(562.980469 0)"/>
     <use xlink:href="#DejaVuSans-76" transform="translate(590.763672 0)"/>
     <use xlink:href="#DejaVuSans-65" transform="translate(649.943359 0)"/>
     <use xlink:href="#DejaVuSans-6e" transform="translate(711.466797 0)"/>
     <use xlink:href="#DejaVuSans-20" transform="translate(774.845703 0)"/>
     <use xlink:href="#DejaVuSans-73" transform="translate(806.632812 0)"/>
     <use xlink:href="#DejaVuSans-63" transform="translate(858.732422 0)"/>
     <use xlink:href="#DejaVuSans-68" transform="translate(913.712891 0)"/>
     <use xlink:href="#DejaVuSans-65" transform="translate(977.091797 0)"/>
     <use xlink:href="#DejaVuSans-64" transform="translate(1038.615234 0)"/>
     <use xlink:href="#DejaVuSans-75" transform="translate(1102.091797 0)"/>
     <use xlink:href="#DejaVuSans-6c" transform="translate(1165.470703 0)"/>
     <use xlink:href="#DejaVuSans-65" transform="translate(1193.253906 0)"/>
     <use xlink:href="#DejaVuSans-72" transform="translate(1254.777344 0)"/>
    </g>
    <!-- FAST / MID / SLOW -->
    <g transform="translate(491.912438 214.367918) scale(0.09 -0.09)">
     <defs>
      <path id="DejaVuSans-53" d="M 3425 4513 
L 3425 3897 
Q 3066 4069 2747 4153 
Q 2428 4238 2131 4238 
Q 1616 4238 1336 4038 
Q 1056 3838 1056 3469 
Q 1056 3159 1242 3001 
Q 1428 2844 1947 2747 
L 2328 2669 
Q 3034 2534 3370 2195 
Q 3706 1856 3706 1288 
Q 3706 609 3251 259 
Q 2797 -91 1919 -91 
Q 1588 -91 1214 -16 
Q 841 59 441 206 
L 441 856 
Q 825 641 1194 531 
Q 1563 422 1919 422 
Q 2459 422 2753 634 
Q 3047 847 3047 1241 
Q 3047 1584 2836 1778 
Q 2625 1972 2144 2069 
L 1759 2144 
Q 1053 2284 737 2584 
Q 422 2884 422 3419 
Q 422 4038 858 4394 
Q 1294 4750 2059 4750 
Q 2388 4750 2728 4690 
Q 3069 4631 3425 4513 
z
" transform="scale(0.015625)"/>
      <path id="DejaVuSans-54" d="M -19 4666 
L 3928 4666 
L 3928 4134 
L 2272 4134 
L 2272 0 
L 1638 0 
L 1638 4134 
L -19 4134 
L -19 4666 
z
" transform="scale(0.015625)"/>
      <path id="DejaVuSans-2f" d="M 1625 4666 
L 2156 4666 
L 531 -594 
L 0 -594 
L 1625 4666 
z
" transform="scale(0.015625)"/>
      <path id="DejaVuSans-4d" d="M 628 4666 
L 1569 4666 
L 2759 1491 
L 3956 4666 
L 4897 4666 
L 4897 0 
L 4281 0 
L 4281 4097 
L 3078 897 
L 2444 897 
L 1241 4097 
L 1241 0 
L 628 0 
L 628 4666 
z
" transform="scale(0.015625)"/>
      <path id="DejaVuSans-44" d="M 1259 4147 
L 1259 519 
L 2022 519 
Q 2988 519 3436 956 
Q 3884 1394 3884 2338 
Q 3884 3275 3436 3711 
Q 2988 4147 2022 4147 
L 1259 4147 
z
M 628 4666 
L 1925 4666 
Q 3281 4666 3915 4102 
Q 4550 3538 4550 2338 
Q 4550 1131 3912 565 
Q 3275 0 1925 0 
L 628 0 
L 628 4666 
z
" transform="scale(0.015625)"/>
      <path id="DejaVuSans-4f" d="M 2522 4238 
Q 1834 4238 1429 3725 
Q 1025 3213 1025 2328 
Q 1025 1447 1429 934 
Q 1834 422 2522 422 
Q 3209 422 3611 934 
Q 4013 1447 4013 2328 
Q 4013 3213 3611 3725 
Q 3209 4238 2522 4238 
z
M 2522 4750 
Q 3503 4750 4090 4092 
Q 4678 3434 4678 2328 
Q 4678 1225 4090 567 
Q 3503 -91 2522 -91 
Q 1538 -91 948 565 
Q 359 1222 359 2328 
Q 359 3434 948 4092 
Q 1538 4750 2522 4750 
z
" transform="scale(0.015625)"/>
      <path id="DejaVuSans-57" d="M 213 4666 
L 850 4666 
L 1831 722 
L 2809 4666 
L 3519 4666 
L 4500 722 
L 5478 4666 
L 6119 4666 
L 4947 0 
L 4153 0 
L 3169 4050 
L 2175 0 
L 1381 0 
L 213 4666 
z
" transform="scale(0.015625)"/>
     </defs>
     <use xlink:href="#DejaVuSans-46"/>
     <use xlink:href="#DejaVuSans-41" transform="translate(48.394531 0)"/>
     <use xlink:href="#DejaVuSans-53" transform="translate(116.802734 0)"/>
     <use xlink:href="#DejaVuSans-54" transform="translate(180.279297 0)"/>
     <use xlink:href="#DejaVuSans-20" transform="translate(241.363281 0)"/>
     <use xlink:href="#DejaVuSans-2f" transform="translate(273.150391 0)"/>
     <use xlink:href="#DejaVuSans-20" transform="translate(306.841797 0)"/>
     <use xlink:href="#DejaVuSans-4d" transform="translate(338.628906 0)"/>
     <use xlink:href="#DejaVuSans-49" transform="translate(424.908203 0)"/>
     <use xlink:href="#DejaVuSans-44" transform="translate(454.400391 0)"/>
     <use xlink:href="#DejaVuSans-20" transform="translate(531.402344 0)"/>
     <use xlink:href="#DejaVuSans-2f" transform="translate(563.189453 0)"/>
     <use xlink:href="#DejaVuSans-20" transform="translate(596.880859 0)"/>
     <use xlink:href="#DejaVuSans-53" transform="translate(628.667969 0)"/>
     <use xlink:href="#DejaVuSans-4c" transform="translate(692.144531 0)"/>
     <use xlink:href="#DejaVuSans-4f" transform="translate(744.232422 0)"/>
     <use xlink:href="#DejaVuSans-57" transform="translate(822.943359 0)"/>
    </g>
    <!-- 1 / 3 / 12 blocks -->
    <g transform="translate(497.474156 224.445949) scale(0.09 -0.09)">
     <defs>
      <path id="DejaVuSans-31" d="M 794 531 
L 1825 531 
L 1825 4091 
L 703 3866 
L 703 4441 
L 1819 4666 
L 2450 4666 
L 2450 531 
L 3481 531 
L 3481 0 
L 794 0 
L 794 531 
z
" transform="scale(0.015625)"/>
      <path id="DejaVuSans-33" d="M 2597 2516 
Q 3050 2419 3304 2112 
Q 3559 1806 3559 1356 
Q 3559 666 3084 287 
Q 2609 -91 1734 -91 
Q 1441 -91 1130 -33 
Q 819 25 488 141 
L 488 750 
Q 750 597 1062 519 
Q 1375 441 1716 441 
Q 2309 441 2620 675 
Q 2931 909 2931 1356 
Q 2931 1769 2642 2001 
Q 2353 2234 1838 2234 
L 1294 2234 
L 1294 2753 
L 1863 2753 
Q 2328 2753 2575 2939 
Q 2822 3125 2822 3475 
Q 2822 3834 2567 4026 
Q 2313 4219 1838 4219 
Q 1578 4219 1281 4162 
Q 984 4106 628 3988 
L 628 4550 
Q 988 4650 1302 4700 
Q 1616 4750 1894 4750 
Q 2613 4750 3031 4423 
Q 3450 4097 3450 3541 
Q 3450 3153 3228 2886 
Q 3006 2619 2597 2516 
z
" transform="scale(0.015625)"/>
      <path id="DejaVuSans-32" d="M 1228 531 
L 3431 531 
L 3431 0 
L 469 0 
L 469 531 
Q 828 903 1448 1529 
Q 2069 2156 2228 2338 
Q 2531 2678 2651 2914 
Q 2772 3150 2772 3378 
Q 2772 3750 2511 3984 
Q 2250 4219 1831 4219 
Q 1534 4219 1204 4116 
Q 875 4013 500 3803 
L 500 4441 
Q 881 4594 1212 4672 
Q 1544 4750 1819 4750 
Q 2544 4750 2975 4387 
Q 3406 4025 3406 3419 
Q 3406 3131 3298 2873 
Q 3191 2616 2906 2266 
Q 2828 2175 2409 1742 
Q 1991 1309 1228 531 
z
" transform="scale(0.015625)"/>
      <path id="DejaVuSans-62" d="M 3116 1747 
Q 3116 2381 2855 2742 
Q 2594 3103 2138 3103 
Q 1681 3103 1420 2742 
Q 1159 2381 1159 1747 
Q 1159 1113 1420 752 
Q 1681 391 2138 391 
Q 2594 391 2855 752 
Q 3116 1113 3116 1747 
z
M 1159 2969 
Q 1341 3281 1617 3432 
Q 1894 3584 2278 3584 
Q 2916 3584 3314 3078 
Q 3713 2572 3713 1747 
Q 3713 922 3314 415 
Q 2916 -91 2278 -91 
Q 1894 -91 1617 61 
Q 1341 213 1159 525 
L 1159 0 
L 581 0 
L 581 4863 
L 1159 4863 
L 1159 2969 
z
" transform="scale(0.015625)"/>
     </defs>
     <use xlink:href="#DejaVuSans-31"/>
     <use xlink:href="#DejaVuSans-20" transform="translate(63.623047 0)"/>
     <use xlink:href="#DejaVuSans-2f" transform="translate(95.410156 0)"/>
     <use xlink:href="#DejaVuSans-20" transform="translate(129.101562 0)"/>
     <use xlink:href="#DejaVuSans-33" transform="translate(160.888672 0)"/>
     <use xlink:href="#DejaVuSans-20" transform="translate(224.511719 0)"/>
     <use xlink:href="#DejaVuSans-2f" transform="translate(256.298828 0)"/>
     <use xlink:href="#DejaVuSans-20" transform="translate(289.990234 0)"/>
     <use xlink:href="#DejaVuSans-31" transform="translate(321.777344 0)"/>
     <use xlink:href="#DejaVuSans-32" transform="translate(385.400391 0)"/>
     <use xlink:href="#DejaVuSans-20" transform="translate(449.023438 0)"/>
     <use xlink:href="#DejaVuSans-62" transform="translate(480.810547 0)"/>
     <use xlink:href="#DejaVuSans-6c" transform="translate(544.287109 0)"/>
     <use xlink:href="#DejaVuSans-6f" transform="translate(572.070312 0)"/>
     <use xlink:href="#DejaVuSans-63" transform="translate(633.251953 0)"/>
     <use xlink:href="#DejaVuSans-6b" transform="translate(688.232422 0)"/>
     <use xlink:href="#DejaVuSans-73" transform="translate(746.142578 0)"/>
    </g>
   </g>
   <g id="patch_14">
    <path d="M 393.994819 123.438447 
Q 453.183418 154.227878 511.181784 184.398159 
" style="fill: none; stroke: #54a24b; stroke-width: 1.2; stroke-linecap: round"/>
    <path d="M 508.556169 180.777918 
L 511.181784 184.398159 
L 506.710222 184.326507 
" style="fill: none; stroke: #54a24b; stroke-width: 1.2; stroke-linecap: round"/>
   </g>
   <g id="patch_15">
    <path d="M 454.853703 227.579071 
Q 360.134698 305.873139 266.449787 228.433352 
" style="fill: none; stroke: #54a24b; stroke-width: 1.2; stroke-linecap: round"/>
    <path d="M 268.258628 232.523351 
L 266.449787 228.433352 
L 270.807091 229.440278 
" style="fill: none; stroke: #54a24b; stroke-width: 1.2; stroke-linecap: round"/>
   </g>
   <g id="text_8">
    <!-- Residual-driven multirate PLI cancellation (A3) -->
    <g transform="translate(143.03125 28.360405) scale(0.14 -0.14)">
     <defs>
      <path id="DejaVuSans-Bold-52" d="M 2297 2597 
Q 2675 2597 2839 2737 
Q 3003 2878 3003 3200 
Q 3003 3519 2839 3656 
Q 2675 3794 2297 3794 
L 1791 3794 
L 1791 2597 
L 2297 2597 
z
M 1791 1766 
L 1791 0 
L 588 0 
L 588 4666 
L 2425 4666 
Q 3347 4666 3776 4356 
Q 4206 4047 4206 3378 
Q 4206 2916 3982 2619 
Q 3759 2322 3309 2181 
Q 3556 2125 3751 1926 
Q 3947 1728 4147 1325 
L 4800 0 
L 3519 0 
L 2950 1159 
Q 2778 1509 2601 1637 
Q 2425 1766 2131 1766 
L 1791 1766 
z
" transform="scale(0.015625)"/>
      <path id="DejaVuSans-Bold-65" d="M 4031 1759 
L 4031 1441 
L 1416 1441 
Q 1456 1047 1700 850 
Q 1944 653 2381 653 
Q 2734 653 3104 758 
Q 3475 863 3866 1075 
L 3866 213 
Q 3469 63 3072 -14 
Q 2675 -91 2278 -91 
Q 1328 -91 801 392 
Q 275 875 275 1747 
Q 275 2603 792 3093 
Q 1309 3584 2216 3584 
Q 3041 3584 3536 3087 
Q 4031 2591 4031 1759 
z
M 2881 2131 
Q 2881 2450 2695 2645 
Q 2509 2841 2209 2841 
Q 1884 2841 1681 2658 
Q 1478 2475 1428 2131 
L 2881 2131 
z
" transform="scale(0.015625)"/>
      <path id="DejaVuSans-Bold-73" d="M 3272 3391 
L 3272 2541 
Q 2913 2691 2578 2766 
Q 2244 2841 1947 2841 
Q 1628 2841 1473 2761 
Q 1319 2681 1319 2516 
Q 1319 2381 1436 2309 
Q 1553 2238 1856 2203 
L 2053 2175 
Q 2913 2066 3209 1816 
Q 3506 1566 3506 1031 
Q 3506 472 3093 190 
Q 2681 -91 1863 -91 
Q 1516 -91 1145 -36 
Q 775 19 384 128 
L 384 978 
Q 719 816 1070 734 
Q 1422 653 1784 653 
Q 2113 653 2278 743 
Q 2444 834 2444 1013 
Q 2444 1163 2330 1236 
Q 2216 1309 1875 1350 
L 1678 1375 
Q 931 1469 631 1722 
Q 331 1975 331 2491 
Q 331 3047 712 3315 
Q 1094 3584 1881 3584 
Q 2191 3584 2531 3537 
Q 2872 3491 3272 3391 
z
" transform="scale(0.015625)"/>
      <path id="DejaVuSans-Bold-69" d="M 538 3500 
L 1656 3500 
L 1656 0 
L 538 0 
L 538 3500 
z
M 538 4863 
L 1656 4863 
L 1656 3950 
L 538 3950 
L 538 4863 
z
" transform="scale(0.015625)"/>
      <path id="DejaVuSans-Bold-64" d="M 2919 2988 
L 2919 4863 
L 4044 4863 
L 4044 0 
L 2919 0 
L 2919 506 
Q 2688 197 2409 53 
Q 2131 -91 1766 -91 
Q 1119 -91 703 423 
Q 288 938 288 1747 
Q 288 2556 703 3070 
Q 1119 3584 1766 3584 
Q 2128 3584 2408 3439 
Q 2688 3294 2919 2988 
z
M 2181 722 
Q 2541 722 2730 984 
Q 2919 1247 2919 1747 
Q 2919 2247 2730 2509 
Q 2541 2772 2181 2772 
Q 1825 2772 1636 2509 
Q 1447 2247 1447 1747 
Q 1447 1247 1636 984 
Q 1825 722 2181 722 
z
" transform="scale(0.015625)"/>
      <path id="DejaVuSans-Bold-75" d="M 500 1363 
L 500 3500 
L 1625 3500 
L 1625 3150 
Q 1625 2866 1622 2436 
Q 1619 2006 1619 1863 
Q 1619 1441 1641 1255 
Q 1663 1069 1716 984 
Q 1784 875 1895 815 
Q 2006 756 2150 756 
Q 2500 756 2700 1025 
Q 2900 1294 2900 1772 
L 2900 3500 
L 4019 3500 
L 4019 0 
L 2900 0 
L 2900 506 
Q 2647 200 2364 54 
Q 2081 -91 1741 -91 
Q 1134 -91 817 281 
Q 500 653 500 1363 
z
" transform="scale(0.015625)"/>
      <path id="DejaVuSans-Bold-61" d="M 2106 1575 
Q 1756 1575 1579 1456 
Q 1403 1338 1403 1106 
Q 1403 894 1545 773 
Q 1688 653 1941 653 
Q 2256 653 2472 879 
Q 2688 1106 2688 1447 
L 2688 1575 
L 2106 1575 
z
M 3816 1997 
L 3816 0 
L 2688 0 
L 2688 519 
Q 2463 200 2181 54 
Q 1900 -91 1497 -91 
Q 953 -91 614 226 
Q 275 544 275 1050 
Q 275 1666 698 1953 
Q 1122 2241 2028 2241 
L 2688 2241 
L 2688 2328 
Q 2688 2594 2478 2717 
Q 2269 2841 1825 2841 
Q 1466 2841 1156 2769 
Q 847 2697 581 2553 
L 581 3406 
Q 941 3494 1303 3539 
Q 1666 3584 2028 3584 
Q 2975 3584 3395 3211 
Q 3816 2838 3816 1997 
z
" transform="scale(0.015625)"/>
      <path id="DejaVuSans-Bold-6c" d="M 538 4863 
L 1656 4863 
L 1656 0 
L 538 0 
L 538 4863 
z
" transform="scale(0.015625)"/>
      <path id="DejaVuSans-Bold-2d" d="M 347 2297 
L 2309 2297 
L 2309 1388 
L 347 1388 
L 347 2297 
z
" transform="scale(0.015625)"/>
      <path id="DejaVuSans-Bold-72" d="M 3138 2547 
Q 2991 2616 2845 2648 
Q 2700 2681 2553 2681 
Q 2122 2681 1889 2404 
Q 1656 2128 1656 1613 
L 1656 0 
L 538 0 
L 538 3500 
L 1656 3500 
L 1656 2925 
Q 1872 3269 2151 3426 
Q 2431 3584 2822 3584 
Q 2878 3584 2943 3579 
Q 3009 3575 3134 3559 
L 3138 2547 
z
" transform="scale(0.015625)"/>
      <path id="DejaVuSans-Bold-76" d="M 97 3500 
L 1216 3500 
L 2088 1081 
L 2956 3500 
L 4078 3500 
L 2700 0 
L 1472 0 
L 97 3500 
z
" transform="scale(0.015625)"/>
      <path id="DejaVuSans-Bold-6e" d="M 4056 2131 
L 4056 0 
L 2931 0 
L 2931 347 
L 2931 1631 
Q 2931 2084 2911 2256 
Q 2891 2428 2841 2509 
Q 2775 2619 2662 2680 
Q 2550 2741 2406 2741 
Q 2056 2741 1856 2470 
Q 1656 2200 1656 1722 
L 1656 0 
L 538 0 
L 538 3500 
L 1656 3500 
L 1656 2988 
Q 1909 3294 2193 3439 
Q 2478 3584 2822 3584 
Q 3428 3584 3742 3212 
Q 4056 2841 4056 2131 
z
" transform="scale(0.015625)"/>
      <path id="DejaVuSans-Bold-20" transform="scale(0.015625)"/>
      <path id="DejaVuSans-Bold-6d" d="M 3781 2919 
Q 3994 3244 4286 3414 
Q 4578 3584 4928 3584 
Q 5531 3584 5847 3212 
Q 6163 2841 6163 2131 
L 6163 0 
L 5038 0 
L 5038 1825 
Q 5041 1866 5042 1909 
Q 5044 1953 5044 2034 
Q 5044 2406 4934 2573 
Q 4825 2741 4581 2741 
Q 4263 2741 4089 2478 
Q 3916 2216 3909 1719 
L 3909 0 
L 2784 0 
L 2784 1825 
Q 2784 2406 2684 2573 
Q 2584 2741 2328 2741 
Q 2006 2741 1831 2477 
Q 1656 2213 1656 1722 
L 1656 0 
L 531 0 
L 531 3500 
L 1656 3500 
L 1656 2988 
Q 1863 3284 2130 3434 
Q 2397 3584 2719 3584 
Q 3081 3584 3359 3409 
Q 3638 3234 3781 2919 
z
" transform="scale(0.015625)"/>
      <path id="DejaVuSans-Bold-74" d="M 1759 4494 
L 1759 3500 
L 2913 3500 
L 2913 2700 
L 1759 2700 
L 1759 1216 
Q 1759 972 1856 886 
Q 1953 800 2241 800 
L 2816 800 
L 2816 0 
L 1856 0 
Q 1194 0 917 276 
Q 641 553 641 1216 
L 641 2700 
L 84 2700 
L 84 3500 
L 641 3500 
L 641 4494 
L 1759 4494 
z
" transform="scale(0.015625)"/>
      <path id="DejaVuSans-Bold-50" d="M 588 4666 
L 2584 4666 
Q 3475 4666 3951 4270 
Q 4428 3875 4428 3144 
Q 4428 2409 3951 2014 
Q 3475 1619 2584 1619 
L 1791 1619 
L 1791 0 
L 588 0 
L 588 4666 
z
M 1791 3794 
L 1791 2491 
L 2456 2491 
Q 2806 2491 2997 2661 
Q 3188 2831 3188 3144 
Q 3188 3456 2997 3625 
Q 2806 3794 2456 3794 
L 1791 3794 
z
" transform="scale(0.015625)"/>
      <path id="DejaVuSans-Bold-4c" d="M 588 4666 
L 1791 4666 
L 1791 909 
L 3903 909 
L 3903 0 
L 588 0 
L 588 4666 
z
" transform="scale(0.015625)"/>
      <path id="DejaVuSans-Bold-49" d="M 588 4666 
L 1791 4666 
L 1791 0 
L 588 0 
L 588 4666 
z
" transform="scale(0.015625)"/>
      <path id="DejaVuSans-Bold-63" d="M 3366 3391 
L 3366 2478 
Q 3138 2634 2908 2709 
Q 2678 2784 2431 2784 
Q 1963 2784 1702 2511 
Q 1441 2238 1441 1747 
Q 1441 1256 1702 982 
Q 1963 709 2431 709 
Q 2694 709 2930 787 
Q 3166 866 3366 1019 
L 3366 103 
Q 3103 6 2833 -42 
Q 2563 -91 2291 -91 
Q 1344 -91 809 395 
Q 275 881 275 1747 
Q 275 2613 809 3098 
Q 1344 3584 2291 3584 
Q 2566 3584 2833 3536 
Q 3100 3488 3366 3391 
z
" transform="scale(0.015625)"/>
      <path id="DejaVuSans-Bold-6f" d="M 2203 2784 
Q 1831 2784 1636 2517 
Q 1441 2250 1441 1747 
Q 1441 1244 1636 976 
Q 1831 709 2203 709 
Q 2569 709 2762 976 
Q 2956 1244 2956 1747 
Q 2956 2250 2762 2517 
Q 2569 2784 2203 2784 
z
M 2203 3584 
Q 3106 3584 3614 3096 
Q 4122 2609 4122 1747 
Q 4122 884 3614 396 
Q 3106 -91 2203 -91 
Q 1297 -91 786 396 
Q 275 884 275 1747 
Q 275 2609 786 3096 
Q 1297 3584 2203 3584 
z
" transform="scale(0.015625)"/>
      <path id="DejaVuSans-Bold-28" d="M 2413 -844 
L 1484 -844 
Q 1006 -72 778 623 
Q 550 1319 550 2003 
Q 550 2688 779 3389 
Q 1009 4091 1484 4856 
L 2413 4856 
Q 2013 4116 1813 3408 
Q 1613 2700 1613 2009 
Q 1613 1319 1811 609 
Q 2009 -100 2413 -844 
z
" transform="scale(0.015625)"/>
      <path id="DejaVuSans-Bold-41" d="M 3419 850 
L 1538 850 
L 1241 0 
L 31 0 
L 1759 4666 
L 3194 4666 
L 4922 0 
L 3713 0 
L 3419 850 
z
M 1838 1716 
L 3116 1716 
L 2478 3572 
L 1838 1716 
z
" transform="scale(0.015625)"/>
      <path id="DejaVuSans-Bold-33" d="M 2981 2516 
Q 3453 2394 3698 2092 
Q 3944 1791 3944 1325 
Q 3944 631 3412 270 
Q 2881 -91 1863 -91 
Q 1503 -91 1142 -33 
Q 781 25 428 141 
L 428 1069 
Q 766 900 1098 814 
Q 1431 728 1753 728 
Q 2231 728 2486 893 
Q 2741 1059 2741 1369 
Q 2741 1688 2480 1852 
Q 2219 2016 1709 2016 
L 1228 2016 
L 1228 2791 
L 1734 2791 
Q 2188 2791 2409 2933 
Q 2631 3075 2631 3366 
Q 2631 3634 2415 3781 
Q 2200 3928 1806 3928 
Q 1516 3928 1219 3862 
Q 922 3797 628 3669 
L 628 4550 
Q 984 4650 1334 4700 
Q 1684 4750 2022 4750 
Q 2931 4750 3382 4451 
Q 3834 4153 3834 3553 
Q 3834 3144 3618 2883 
Q 3403 2622 2981 2516 
z
" transform="scale(0.015625)"/>
      <path id="DejaVuSans-Bold-29" d="M 513 -844 
Q 913 -100 1113 609 
Q 1313 1319 1313 2009 
Q 1313 2700 1113 3408 
Q 913 4116 513 4856 
L 1441 4856 
Q 1916 4091 2145 3389 
Q 2375 2688 2375 2003 
Q 2375 1319 2147 623 
Q 1919 -72 1441 -844 
L 513 -844 
z
" transform="scale(0.015625)"/>
     </defs>
     <use xlink:href="#DejaVuSans-Bold-52"/>
     <use xlink:href="#DejaVuSans-Bold-65" transform="translate(77.001953 0)"/>
     <use xlink:href="#DejaVuSans-Bold-73" transform="translate(144.824219 0)"/>
     <use xlink:href="#DejaVuSans-Bold-69" transform="translate(204.345703 0)"/>
     <use xlink:href="#DejaVuSans-Bold-64" transform="translate(238.623047 0)"/>
     <use xlink:href="#DejaVuSans-Bold-75" transform="translate(310.205078 0)"/>
     <use xlink:href="#DejaVuSans-Bold-61" transform="translate(381.396484 0)"/>
     <use xlink:href="#DejaVuSans-Bold-6c" transform="translate(448.876953 0)"/>
     <use xlink:href="#DejaVuSans-Bold-2d" transform="translate(483.154297 0)"/>
     <use xlink:href="#DejaVuSans-Bold-64" transform="translate(524.658203 0)"/>
     <use xlink:href="#DejaVuSans-Bold-72" transform="translate(596.240234 0)"/>
     <use xlink:href="#DejaVuSans-Bold-69" transform="translate(645.556641 0)"/>
     <use xlink:href="#DejaVuSans-Bold-76" transform="translate(679.833984 0)"/>
     <use xlink:href="#DejaVuSans-Bold-65" transform="translate(745.019531 0)"/>
     <use xlink:href="#DejaVuSans-Bold-6e" transform="translate(812.841797 0)"/>
     <use xlink:href="#DejaVuSans-Bold-20" transform="translate(884.033203 0)"/>
     <use xlink:href="#DejaVuSans-Bold-6d" transform="translate(918.847656 0)"/>
     <use xlink:href="#DejaVuSans-Bold-75" transform="translate(1023.046875 0)"/>
     <use xlink:href="#DejaVuSans-Bold-6c" transform="translate(1094.238281 0)"/>
     <use xlink:href="#DejaVuSans-Bold-74" transform="translate(1128.515625 0)"/>
     <use xlink:href="#DejaVuSans-Bold-69" transform="translate(1176.318359 0)"/>
     <use xlink:href="#DejaVuSans-Bold-72" transform="translate(1210.595703 0)"/>
     <use xlink:href="#DejaVuSans-Bold-61" transform="translate(1259.912109 0)"/>
     <use xlink:href="#DejaVuSans-Bold-74" transform="translate(1327.392578 0)"/>
     <use xlink:href="#DejaVuSans-Bold-65" transform="translate(1375.195312 0)"/>
     <use xlink:href="#DejaVuSans-Bold-20" transform="translate(1443.017578 0)"/>
     <use xlink:href="#DejaVuSans-Bold-50" transform="translate(1477.832031 0)"/>
     <use xlink:href="#DejaVuSans-Bold-4c" transform="translate(1551.123047 0)"/>
     <use xlink:href="#DejaVuSans-Bold-49" transform="translate(1614.84375 0)"/>
     <use xlink:href="#DejaVuSans-Bold-20" transform="translate(1652.050781 0)"/>
     <use xlink:href="#DejaVuSans-Bold-63" transform="translate(1686.865234 0)"/>
     <use xlink:href="#DejaVuSans-Bold-61" transform="translate(1746.142578 0)"/>
     <use xlink:href="#DejaVuSans-Bold-6e" transform="translate(1813.623047 0)"/>
     <use xlink:href="#DejaVuSans-Bold-63" transform="translate(1884.814453 0)"/>
     <use xlink:href="#DejaVuSans-Bold-65" transform="translate(1944.091797 0)"/>
     <use xlink:href="#DejaVuSans-Bold-6c" transform="translate(2011.914062 0)"/>
     <use xlink:href="#DejaVuSans-Bold-6c" transform="translate(2046.191406 0)"/>
     <use xlink:href="#DejaVuSans-Bold-61" transform="translate(2080.46875 0)"/>
     <use xlink:href="#DejaVuSans-Bold-74" transform="translate(2147.949219 0)"/>
     <use xlink:href="#DejaVuSans-Bold-69" transform="translate(2195.751953 0)"/>
     <use xlink:href="#DejaVuSans-Bold-6f" transform="translate(2230.029297 0)"/>
     <use xlink:href="#DejaVuSans-Bold-6e" transform="translate(2298.730469 0)"/>
     <use xlink:href="#DejaVuSans-Bold-20" transform="translate(2369.921875 0)"/>
     <use xlink:href="#DejaVuSans-Bold-28" transform="translate(2404.736328 0)"/>
     <use xlink:href="#DejaVuSans-Bold-41" transform="translate(2450.439453 0)"/>
     <use xlink:href="#DejaVuSans-Bold-33" transform="translate(2527.832031 0)"/>
     <use xlink:href="#DejaVuSans-Bold-29" transform="translate(2597.412109 0)"/>
    </g>
   </g>
   <g id="text_9">
    <!-- A2 updates the tracker every block; A3 schedules tracker updates from the residual state. -->
    <g style="fill: #444444" transform="translate(124.780078 275.635142) scale(0.09 -0.09)">
     <defs>
      <path id="DejaVuSans-3b" d="M 750 3309 
L 1409 3309 
L 1409 2516 
L 750 2516 
L 750 3309 
z
M 750 794 
L 1409 794 
L 1409 256 
L 897 -744 
L 494 -744 
L 750 256 
L 750 794 
z
" transform="scale(0.015625)"/>
      <path id="DejaVuSans-6d" d="M 3328 2828 
Q 3544 3216 3844 3400 
Q 4144 3584 4550 3584 
Q 5097 3584 5394 3201 
Q 5691 2819 5691 2113 
L 5691 0 
L 5113 0 
L 5113 2094 
Q 5113 2597 4934 2840 
Q 4756 3084 4391 3084 
Q 3944 3084 3684 2787 
Q 3425 2491 3425 1978 
L 3425 0 
L 2847 0 
L 2847 2094 
Q 2847 2600 2669 2842 
Q 2491 3084 2119 3084 
Q 1678 3084 1418 2786 
Q 1159 2488 1159 1978 
L 1159 0 
L 581 0 
L 581 3500 
L 1159 3500 
L 1159 2956 
Q 1356 3278 1631 3431 
Q 1906 3584 2284 3584 
Q 2666 3584 2933 3390 
Q 3200 3197 3328 2828 
z
" transform="scale(0.015625)"/>
      <path id="DejaVuSans-2e" d="M 684 794 
L 1344 794 
L 1344 0 
L 684 0 
L 684 794 
z
" transform="scale(0.015625)"/>
     </defs>
     <use xlink:href="#DejaVuSans-41"/>
     <use xlink:href="#DejaVuSans-32" transform="translate(68.408203 0)"/>
     <use xlink:href="#DejaVuSans-20" transform="translate(132.03125 0)"/>
     <use xlink:href="#DejaVuSans-75" transform="translate(163.818359 0)"/>
     <use xlink:href="#DejaVuSans-70" transform="translate(227.197266 0)"/>
     <use xlink:href="#DejaVuSans-64" transform="translate(290.673828 0)"/>
     <use xlink:href="#DejaVuSans-61" transform="translate(354.150391 0)"/>
     <use xlink:href="#DejaVuSans-74" transform="translate(415.429688 0)"/>
     <use xlink:href="#DejaVuSans-65" transform="translate(454.638672 0)"/>
     <use xlink:href="#DejaVuSans-73" transform="translate(516.162109 0)"/>
     <use xlink:href="#DejaVuSans-20" transform="translate(568.261719 0)"/>
     <use xlink:href="#DejaVuSans-74" transform="translate(600.048828 0)"/>
     <use xlink:href="#DejaVuSans-68" transform="translate(639.257812 0)"/>
     <use xlink:href="#DejaVuSans-65" transform="translate(702.636719 0)"/>
     <use xlink:href="#DejaVuSans-20" transform="translate(764.160156 0)"/>
     <use xlink:href="#DejaVuSans-74" transform="translate(795.947266 0)"/>
     <use xlink:href="#DejaVuSans-72" transform="translate(835.15625 0)"/>
     <use xlink:href="#DejaVuSans-61" transform="translate(876.269531 0)"/>
     <use xlink:href="#DejaVuSans-63" transform="translate(937.548828 0)"/>
     <use xlink:href="#DejaVuSans-6b" transform="translate(992.529297 0)"/>
     <use xlink:href="#DejaVuSans-65" transform="translate(1046.814453 0)"/>
     <use xlink:href="#DejaVuSans-72" transform="translate(1108.337891 0)"/>
     <use xlink:href="#DejaVuSans-20" transform="translate(1149.451172 0)"/>
     <use xlink:href="#DejaVuSans-65" transform="translate(1181.238281 0)"/>
     <use xlink:href="#DejaVuSans-76" transform="translate(1242.761719 0)"/>
     <use xlink:href="#DejaVuSans-65" transform="translate(1301.941406 0)"/>
     <use xlink:href="#DejaVuSans-72" transform="translate(1363.464844 0)"/>
     <use xlink:href="#DejaVuSans-79" transform="translate(1404.578125 0)"/>
     <use xlink:href="#DejaVuSans-20" transform="translate(1463.757812 0)"/>
     <use xlink:href="#DejaVuSans-62" transform="translate(1495.544922 0)"/>
     <use xlink:href="#DejaVuSans-6c" transform="translate(1559.021484 0)"/>
     <use xlink:href="#DejaVuSans-6f" transform="translate(1586.804688 0)"/>
     <use xlink:href="#DejaVuSans-63" transform="translate(1647.986328 0)"/>
     <use xlink:href="#DejaVuSans-6b" transform="translate(1702.966797 0)"/>
     <use xlink:href="#DejaVuSans-3b" transform="translate(1760.876953 0)"/>
     <use xlink:href="#DejaVuSans-20" transform="translate(1794.568359 0)"/>
     <use xlink:href="#DejaVuSans-41" transform="translate(1826.355469 0)"/>
     <use xlink:href="#DejaVuSans-33" transform="translate(1894.763672 0)"/>
     <use xlink:href="#DejaVuSans-20" transform="translate(1958.386719 0)"/>
     <use xlink:href="#DejaVuSans-73" transform="translate(1990.173828 0)"/>
     <use xlink:href="#DejaVuSans-63" transform="translate(2042.273438 0)"/>
     <use xlink:href="#DejaVuSans-68" transform="translate(2097.253906 0)"/>
     <use xlink:href="#DejaVuSans-65" transform="translate(2160.632812 0)"/>
     <use xlink:href="#DejaVuSans-64" transform="translate(2222.15625 0)"/>
     <use xlink:href="#DejaVuSans-75" transform="translate(2285.632812 0)"/>
     <use xlink:href="#DejaVuSans-6c" transform="translate(2349.011719 0)"/>
     <use xlink:href="#DejaVuSans-65" transform="translate(2376.794922 0)"/>
     <use xlink:href="#DejaVuSans-73" transform="translate(2438.318359 0)"/>
     <use xlink:href="#DejaVuSans-20" transform="translate(2490.417969 0)"/>
     <use xlink:href="#DejaVuSans-74" transform="translate(2522.205078 0)"/>
     <use xlink:href="#DejaVuSans-72" transform="translate(2561.414062 0)"/>
     <use xlink:href="#DejaVuSans-61" transform="translate(2602.527344 0)"/>
     <use xlink:href="#DejaVuSans-63" transform="translate(2663.806641 0)"/>
     <use xlink:href="#DejaVuSans-6b" transform="translate(2718.787109 0)"/>
     <use xlink:href="#DejaVuSans-65" transform="translate(2773.072266 0)"/>
     <use xlink:href="#DejaVuSans-72" transform="translate(2834.595703 0)"/>
     <use xlink:href="#DejaVuSans-20" transform="translate(2875.708984 0)"/>
     <use xlink:href="#DejaVuSans-75" transform="translate(2907.496094 0)"/>
     <use xlink:href="#DejaVuSans-70" transform="translate(2970.875 0)"/>
     <use xlink:href="#DejaVuSans-64" transform="translate(3034.351562 0)"/>
     <use xlink:href="#DejaVuSans-61" transform="translate(3097.828125 0)"/>
     <use xlink:href="#DejaVuSans-74" transform="translate(3159.107422 0)"/>
     <use xlink:href="#DejaVuSans-65" transform="translate(3198.316406 0)"/>
     <use xlink:href="#DejaVuSans-73" transform="translate(3259.839844 0)"/>
     <use xlink:href="#DejaVuSans-20" transform="translate(3311.939453 0)"/>
     <use xlink:href="#DejaVuSans-66" transform="translate(3343.726562 0)"/>
     <use xlink:href="#DejaVuSans-72" transform="translate(3378.931641 0)"/>
     <use xlink:href="#DejaVuSans-6f" transform="translate(3417.794922 0)"/>
     <use xlink:href="#DejaVuSans-6d" transform="translate(3478.976562 0)"/>
     <use xlink:href="#DejaVuSans-20" transform="translate(3576.388672 0)"/>
     <use xlink:href="#DejaVuSans-74" transform="translate(3608.175781 0)"/>
     <use xlink:href="#DejaVuSans-68" transform="translate(3647.384766 0)"/>
     <use xlink:href="#DejaVuSans-65" transform="translate(3710.763672 0)"/>
     <use xlink:href="#DejaVuSans-20" transform="translate(3772.287109 0)"/>
     <use xlink:href="#DejaVuSans-72" transform="translate(3804.074219 0)"/>
     <use xlink:href="#DejaVuSans-65" transform="translate(3842.9375 0)"/>
     <use xlink:href="#DejaVuSans-73" transform="translate(3904.460938 0)"/>
     <use xlink:href="#DejaVuSans-69" transform="translate(3956.560547 0)"/>
     <use xlink:href="#DejaVuSans-64" transform="translate(3984.34375 0)"/>
     <use xlink:href="#DejaVuSans-75" transform="translate(4047.820312 0)"/>
     <use xlink:href="#DejaVuSans-61" transform="translate(4111.199219 0)"/>
     <use xlink:href="#DejaVuSans-6c" transform="translate(4172.478516 0)"/>
     <use xlink:href="#DejaVuSans-20" transform="translate(4200.261719 0)"/>
     <use xlink:href="#DejaVuSans-73" transform="translate(4232.048828 0)"/>
     <use xlink:href="#DejaVuSans-74" transform="translate(4284.148438 0)"/>
     <use xlink:href="#DejaVuSans-61" transform="translate(4323.357422 0)"/>
     <use xlink:href="#DejaVuSans-74" transform="translate(4384.636719 0)"/>
     <use xlink:href="#DejaVuSans-65" transform="translate(4423.845703 0)"/>
     <use xlink:href="#DejaVuSans-2e" transform="translate(4485.369141 0)"/>
    </g>
    <!-- A0/A1 are fixed-frequency explanatory baselines. -->
    <g style="fill: #444444" transform="translate(216.998438 285.713173) scale(0.09 -0.09)">
     <defs>
      <path id="DejaVuSans-30" d="M 2034 4250 
Q 1547 4250 1301 3770 
Q 1056 3291 1056 2328 
Q 1056 1369 1301 889 
Q 1547 409 2034 409 
Q 2525 409 2770 889 
Q 3016 1369 3016 2328 
Q 3016 3291 2770 3770 
Q 2525 4250 2034 4250 
z
M 2034 4750 
Q 2819 4750 3233 4129 
Q 3647 3509 3647 2328 
Q 3647 1150 3233 529 
Q 2819 -91 2034 -91 
Q 1250 -91 836 529 
Q 422 1150 422 2328 
Q 422 3509 836 4129 
Q 1250 4750 2034 4750 
z
" transform="scale(0.015625)"/>
     </defs>
     <use xlink:href="#DejaVuSans-41"/>
     <use xlink:href="#DejaVuSans-30" transform="translate(68.408203 0)"/>
     <use xlink:href="#DejaVuSans-2f" transform="translate(132.03125 0)"/>
     <use xlink:href="#DejaVuSans-41" transform="translate(165.722656 0)"/>
     <use xlink:href="#DejaVuSans-31" transform="translate(234.130859 0)"/>
     <use xlink:href="#DejaVuSans-20" transform="translate(297.753906 0)"/>
     <use xlink:href="#DejaVuSans-61" transform="translate(329.541016 0)"/>
     <use xlink:href="#DejaVuSans-72" transform="translate(390.820312 0)"/>
     <use xlink:href="#DejaVuSans-65" transform="translate(429.683594 0)"/>
     <use xlink:href="#DejaVuSans-20" transform="translate(491.207031 0)"/>
     <use xlink:href="#DejaVuSans-66" transform="translate(522.994141 0)"/>
     <use xlink:href="#DejaVuSans-69" transform="translate(558.199219 0)"/>
     <use xlink:href="#DejaVuSans-78" transform="translate(585.982422 0)"/>
     <use xlink:href="#DejaVuSans-65" transform="translate(642.037109 0)"/>
     <use xlink:href="#DejaVuSans-64" transform="translate(703.560547 0)"/>
     <use xlink:href="#DejaVuSans-2d" transform="translate(767.037109 0)"/>
     <use xlink:href="#DejaVuSans-66" transform="translate(803.121094 0)"/>
     <use xlink:href="#DejaVuSans-72" transform="translate(838.326172 0)"/>
     <use xlink:href="#DejaVuSans-65" transform="translate(877.189453 0)"/>
     <use xlink:href="#DejaVuSans-71" transform="translate(938.712891 0)"/>
     <use xlink:href="#DejaVuSans-75" transform="translate(1002.189453 0)"/>
     <use xlink:href="#DejaVuSans-65" transform="translate(1065.568359 0)"/>
     <use xlink:href="#DejaVuSans-6e" transform="translate(1127.091797 0)"/>
     <use xlink:href="#DejaVuSans-63" transform="translate(1190.470703 0)"/>
     <use xlink:href="#DejaVuSans-79" transform="translate(1245.451172 0)"/>
     <use xlink:href="#DejaVuSans-20" transform="translate(1304.630859 0)"/>
     <use xlink:href="#DejaVuSans-65" transform="translate(1336.417969 0)"/>
     <use xlink:href="#DejaVuSans-78" transform="translate(1396.191406 0)"/>
     <use xlink:href="#DejaVuSans-70" transform="translate(1455.371094 0)"/>
     <use xlink:href="#DejaVuSans-6c" transform="translate(1518.847656 0)"/>
     <use xlink:href="#DejaVuSans-61" transform="translate(1546.630859 0)"/>
     <use xlink:href="#DejaVuSans-6e" transform="translate(1607.910156 0)"/>
     <use xlink:href="#DejaVuSans-61" transform="translate(1671.289062 0)"/>
     <use xlink:href="#DejaVuSans-74" transform="translate(1732.568359 0)"/>
     <use xlink:href="#DejaVuSans-6f" transform="translate(1771.777344 0)"/>
     <use xlink:href="#DejaVuSans-72" transform="translate(1832.958984 0)"/>
     <use xlink:href="#DejaVuSans-79" transform="translate(1874.072266 0)"/>
     <use xlink:href="#DejaVuSans-20" transform="translate(1933.251953 0)"/>
     <use xlink:href="#DejaVuSans-62" transform="translate(1965.039062 0)"/>
     <use xlink:href="#DejaVuSans-61" transform="translate(2028.515625 0)"/>
     <use xlink:href="#DejaVuSans-73" transform="translate(2089.794922 0)"/>
     <use xlink:href="#DejaVuSans-65" transform="translate(2141.894531 0)"/>
     <use xlink:href="#DejaVuSans-6c" transform="translate(2203.417969 0)"/>
     <use xlink:href="#DejaVuSans-69" transform="translate(2231.201172 0)"/>
     <use xlink:href="#DejaVuSans-6e" transform="translate(2258.984375 0)"/>
     <use xlink:href="#DejaVuSans-65" transform="translate(2322.363281 0)"/>
     <use xlink:href="#DejaVuSans-73" transform="translate(2383.886719 0)"/>
     <use xlink:href="#DejaVuSans-2e" transform="translate(2435.986328 0)"/>
    </g>
   </g>
  </g>
 </g>
 <defs>
  <clipPath id="p9dea763306">
   <rect x="7.2" y="7.2" width="641.7" height="288.288"/>
  </clipPath>
 </defs>
</svg>
